<mxfile host="app.diagrams.net" modified="2024-03-07T05:29:43.497Z" agent="Mozilla/5.0 (Windows NT 10.0; Win64; x64) AppleWebKit/537.36 (KHTML, like Gecko) Chrome/122.0.0.0 Safari/537.36" etag="1JdKLZdzPn5vSLBQfUhN" version="24.0.2" type="github">
  <diagram name="第 1 页" id="sBHSsZgVLHd56bY79VaW">
    <mxGraphModel dx="1436" dy="853" grid="1" gridSize="10" guides="1" tooltips="1" connect="1" arrows="1" fold="1" page="1" pageScale="1" pageWidth="827" pageHeight="1169" math="0" shadow="0">
      <root>
        <mxCell id="0" />
        <mxCell id="1" parent="0" />
        <mxCell id="bPaYmccHgP1xw8vOCNis-2" value="&lt;font style=&quot;font-size: 18px;&quot;&gt;系&lt;/font&gt;" style="rounded=0;whiteSpace=wrap;html=1;" parent="1" vertex="1">
          <mxGeometry x="80" y="350" width="120" height="60" as="geometry" />
        </mxCell>
        <mxCell id="bPaYmccHgP1xw8vOCNis-3" value="&lt;font style=&quot;font-size: 18px;&quot;&gt;学校&lt;/font&gt;" style="rounded=0;whiteSpace=wrap;html=1;" parent="1" vertex="1">
          <mxGeometry x="80" y="170" width="120" height="60" as="geometry" />
        </mxCell>
        <mxCell id="bPaYmccHgP1xw8vOCNis-4" value="&lt;font style=&quot;font-size: 18px;&quot;&gt;班级&lt;/font&gt;" style="rounded=0;whiteSpace=wrap;html=1;" parent="1" vertex="1">
          <mxGeometry x="80" y="530" width="120" height="60" as="geometry" />
        </mxCell>
        <mxCell id="bPaYmccHgP1xw8vOCNis-5" value="&lt;font style=&quot;font-size: 18px;&quot;&gt;本科生&lt;/font&gt;" style="rounded=0;whiteSpace=wrap;html=1;" parent="1" vertex="1">
          <mxGeometry x="80" y="710" width="120" height="60" as="geometry" />
        </mxCell>
        <mxCell id="bPaYmccHgP1xw8vOCNis-6" value="&lt;font style=&quot;font-size: 18px;&quot;&gt;研究生&lt;/font&gt;" style="rounded=0;whiteSpace=wrap;html=1;" parent="1" vertex="1">
          <mxGeometry x="360" y="530" width="120" height="60" as="geometry" />
        </mxCell>
        <mxCell id="bPaYmccHgP1xw8vOCNis-7" value="&lt;font style=&quot;font-size: 18px;&quot;&gt;课程&lt;/font&gt;" style="rounded=0;whiteSpace=wrap;html=1;" parent="1" vertex="1">
          <mxGeometry x="360" y="710" width="120" height="60" as="geometry" />
        </mxCell>
        <mxCell id="bPaYmccHgP1xw8vOCNis-8" value="&lt;span style=&quot;font-size: 18px;&quot;&gt;副教授&lt;/span&gt;" style="rounded=0;whiteSpace=wrap;html=1;" parent="1" vertex="1">
          <mxGeometry x="640" y="350" width="120" height="60" as="geometry" />
        </mxCell>
        <mxCell id="bPaYmccHgP1xw8vOCNis-9" value="&lt;font style=&quot;font-size: 18px;&quot;&gt;教授&lt;/font&gt;" style="rounded=0;whiteSpace=wrap;html=1;" parent="1" vertex="1">
          <mxGeometry x="360" y="350" width="120" height="60" as="geometry" />
        </mxCell>
        <mxCell id="bPaYmccHgP1xw8vOCNis-10" value="&lt;font style=&quot;font-size: 18px;&quot;&gt;讲师&lt;/font&gt;" style="rounded=0;whiteSpace=wrap;html=1;" parent="1" vertex="1">
          <mxGeometry x="640" y="170" width="120" height="60" as="geometry" />
        </mxCell>
        <mxCell id="bPaYmccHgP1xw8vOCNis-11" value="&lt;font style=&quot;font-size: 18px;&quot;&gt;教研室&lt;/font&gt;" style="rounded=0;whiteSpace=wrap;html=1;" parent="1" vertex="1">
          <mxGeometry x="360" y="170" width="120" height="60" as="geometry" />
        </mxCell>
        <mxCell id="bPaYmccHgP1xw8vOCNis-12" value="有" style="rhombus;whiteSpace=wrap;html=1;" parent="1" vertex="1">
          <mxGeometry x="90" y="260" width="100" height="60" as="geometry" />
        </mxCell>
        <mxCell id="bPaYmccHgP1xw8vOCNis-13" value="有" style="rhombus;whiteSpace=wrap;html=1;" parent="1" vertex="1">
          <mxGeometry x="90" y="440" width="100" height="60" as="geometry" />
        </mxCell>
        <mxCell id="bPaYmccHgP1xw8vOCNis-16" value="" style="endArrow=none;html=1;rounded=0;" parent="1" edge="1">
          <mxGeometry width="50" height="50" relative="1" as="geometry">
            <mxPoint x="139.71" y="260" as="sourcePoint" />
            <mxPoint x="139.71" y="230" as="targetPoint" />
          </mxGeometry>
        </mxCell>
        <mxCell id="bPaYmccHgP1xw8vOCNis-17" value="" style="endArrow=none;html=1;rounded=0;" parent="1" edge="1">
          <mxGeometry width="50" height="50" relative="1" as="geometry">
            <mxPoint x="139.71" y="350" as="sourcePoint" />
            <mxPoint x="139.71" y="320" as="targetPoint" />
          </mxGeometry>
        </mxCell>
        <mxCell id="bPaYmccHgP1xw8vOCNis-18" value="" style="endArrow=none;html=1;rounded=0;" parent="1" edge="1">
          <mxGeometry width="50" height="50" relative="1" as="geometry">
            <mxPoint x="139.71" y="440" as="sourcePoint" />
            <mxPoint x="139.71" y="410" as="targetPoint" />
          </mxGeometry>
        </mxCell>
        <mxCell id="bPaYmccHgP1xw8vOCNis-19" value="" style="endArrow=none;html=1;rounded=0;" parent="1" edge="1">
          <mxGeometry width="50" height="50" relative="1" as="geometry">
            <mxPoint x="139.71" y="530" as="sourcePoint" />
            <mxPoint x="139.71" y="500" as="targetPoint" />
          </mxGeometry>
        </mxCell>
        <mxCell id="bPaYmccHgP1xw8vOCNis-20" value="n" style="text;html=1;align=center;verticalAlign=middle;resizable=0;points=[];autosize=1;strokeColor=none;fillColor=none;" parent="1" vertex="1">
          <mxGeometry x="140" y="500" width="30" height="30" as="geometry" />
        </mxCell>
        <mxCell id="bPaYmccHgP1xw8vOCNis-21" value="1" style="text;html=1;align=center;verticalAlign=middle;resizable=0;points=[];autosize=1;strokeColor=none;fillColor=none;" parent="1" vertex="1">
          <mxGeometry x="140" y="410" width="30" height="30" as="geometry" />
        </mxCell>
        <mxCell id="bPaYmccHgP1xw8vOCNis-22" value="n" style="text;html=1;align=center;verticalAlign=middle;resizable=0;points=[];autosize=1;strokeColor=none;fillColor=none;" parent="1" vertex="1">
          <mxGeometry x="140" y="320" width="30" height="30" as="geometry" />
        </mxCell>
        <mxCell id="bPaYmccHgP1xw8vOCNis-23" value="1" style="text;html=1;align=center;verticalAlign=middle;resizable=0;points=[];autosize=1;strokeColor=none;fillColor=none;" parent="1" vertex="1">
          <mxGeometry x="140" y="230" width="30" height="30" as="geometry" />
        </mxCell>
        <mxCell id="bPaYmccHgP1xw8vOCNis-24" value="选修" style="rhombus;whiteSpace=wrap;html=1;" parent="1" vertex="1">
          <mxGeometry x="230" y="710" width="100" height="60" as="geometry" />
        </mxCell>
        <mxCell id="bPaYmccHgP1xw8vOCNis-25" value="" style="endArrow=none;html=1;rounded=0;exitX=0;exitY=0.5;exitDx=0;exitDy=0;entryX=1;entryY=0.5;entryDx=0;entryDy=0;" parent="1" source="bPaYmccHgP1xw8vOCNis-24" target="bPaYmccHgP1xw8vOCNis-5" edge="1">
          <mxGeometry width="50" height="50" relative="1" as="geometry">
            <mxPoint x="289.71000000000004" y="710" as="sourcePoint" />
            <mxPoint x="289.71000000000004" y="680" as="targetPoint" />
          </mxGeometry>
        </mxCell>
        <mxCell id="bPaYmccHgP1xw8vOCNis-26" value="" style="endArrow=none;html=1;rounded=0;exitX=0;exitY=0.5;exitDx=0;exitDy=0;entryX=1;entryY=0.5;entryDx=0;entryDy=0;" parent="1" source="bPaYmccHgP1xw8vOCNis-7" target="bPaYmccHgP1xw8vOCNis-24" edge="1">
          <mxGeometry width="50" height="50" relative="1" as="geometry">
            <mxPoint x="289.71000000000004" y="800" as="sourcePoint" />
            <mxPoint x="289.71000000000004" y="770" as="targetPoint" />
          </mxGeometry>
        </mxCell>
        <mxCell id="bPaYmccHgP1xw8vOCNis-27" value="n" style="text;html=1;align=center;verticalAlign=middle;resizable=0;points=[];autosize=1;strokeColor=none;fillColor=none;" parent="1" vertex="1">
          <mxGeometry x="330" y="710" width="30" height="30" as="geometry" />
        </mxCell>
        <mxCell id="bPaYmccHgP1xw8vOCNis-28" value="m" style="text;html=1;align=center;verticalAlign=middle;resizable=0;points=[];autosize=1;strokeColor=none;fillColor=none;" parent="1" vertex="1">
          <mxGeometry x="200" y="710" width="30" height="30" as="geometry" />
        </mxCell>
        <mxCell id="bPaYmccHgP1xw8vOCNis-29" value="选修" style="rhombus;whiteSpace=wrap;html=1;" parent="1" vertex="1">
          <mxGeometry x="370" y="620" width="100" height="60" as="geometry" />
        </mxCell>
        <mxCell id="bPaYmccHgP1xw8vOCNis-30" value="" style="endArrow=none;html=1;rounded=0;" parent="1" edge="1">
          <mxGeometry width="50" height="50" relative="1" as="geometry">
            <mxPoint x="419.71000000000004" y="620" as="sourcePoint" />
            <mxPoint x="419.71000000000004" y="590" as="targetPoint" />
          </mxGeometry>
        </mxCell>
        <mxCell id="bPaYmccHgP1xw8vOCNis-31" value="" style="endArrow=none;html=1;rounded=0;" parent="1" edge="1">
          <mxGeometry width="50" height="50" relative="1" as="geometry">
            <mxPoint x="419.71000000000004" y="710" as="sourcePoint" />
            <mxPoint x="419.71000000000004" y="680" as="targetPoint" />
          </mxGeometry>
        </mxCell>
        <mxCell id="bPaYmccHgP1xw8vOCNis-32" value="n" style="text;html=1;align=center;verticalAlign=middle;resizable=0;points=[];autosize=1;strokeColor=none;fillColor=none;" parent="1" vertex="1">
          <mxGeometry x="420" y="680" width="30" height="30" as="geometry" />
        </mxCell>
        <mxCell id="bPaYmccHgP1xw8vOCNis-33" value="m" style="text;html=1;align=center;verticalAlign=middle;resizable=0;points=[];autosize=1;strokeColor=none;fillColor=none;" parent="1" vertex="1">
          <mxGeometry x="420" y="590" width="30" height="30" as="geometry" />
        </mxCell>
        <mxCell id="bPaYmccHgP1xw8vOCNis-35" value="有" style="rhombus;whiteSpace=wrap;html=1;" parent="1" vertex="1">
          <mxGeometry x="230" y="530" width="100" height="60" as="geometry" />
        </mxCell>
        <mxCell id="bPaYmccHgP1xw8vOCNis-38" value="" style="endArrow=none;html=1;rounded=0;entryX=0;entryY=0.5;entryDx=0;entryDy=0;exitX=1;exitY=0.5;exitDx=0;exitDy=0;" parent="1" source="bPaYmccHgP1xw8vOCNis-4" target="bPaYmccHgP1xw8vOCNis-35" edge="1">
          <mxGeometry width="50" height="50" relative="1" as="geometry">
            <mxPoint x="200" y="530" as="sourcePoint" />
            <mxPoint x="250" y="480" as="targetPoint" />
          </mxGeometry>
        </mxCell>
        <mxCell id="bPaYmccHgP1xw8vOCNis-39" value="" style="endArrow=none;html=1;rounded=0;entryX=0;entryY=0.5;entryDx=0;entryDy=0;exitX=1;exitY=0.5;exitDx=0;exitDy=0;" parent="1" source="bPaYmccHgP1xw8vOCNis-35" target="bPaYmccHgP1xw8vOCNis-6" edge="1">
          <mxGeometry width="50" height="50" relative="1" as="geometry">
            <mxPoint x="350" y="470" as="sourcePoint" />
            <mxPoint x="400" y="410" as="targetPoint" />
          </mxGeometry>
        </mxCell>
        <mxCell id="bPaYmccHgP1xw8vOCNis-44" value="1" style="text;html=1;align=center;verticalAlign=middle;resizable=0;points=[];autosize=1;strokeColor=none;fillColor=none;" parent="1" vertex="1">
          <mxGeometry x="200" y="530" width="30" height="30" as="geometry" />
        </mxCell>
        <mxCell id="bPaYmccHgP1xw8vOCNis-45" value="n" style="text;html=1;align=center;verticalAlign=middle;resizable=0;points=[];autosize=1;strokeColor=none;fillColor=none;" parent="1" vertex="1">
          <mxGeometry x="330" y="530" width="30" height="30" as="geometry" />
        </mxCell>
        <mxCell id="bPaYmccHgP1xw8vOCNis-46" value="有" style="rhombus;whiteSpace=wrap;html=1;" parent="1" vertex="1">
          <mxGeometry x="230" y="260" width="100" height="60" as="geometry" />
        </mxCell>
        <mxCell id="bPaYmccHgP1xw8vOCNis-47" value="" style="endArrow=none;html=1;rounded=0;" parent="1" target="bPaYmccHgP1xw8vOCNis-46" edge="1">
          <mxGeometry width="50" height="50" relative="1" as="geometry">
            <mxPoint x="200" y="350" as="sourcePoint" />
            <mxPoint x="250" y="300" as="targetPoint" />
          </mxGeometry>
        </mxCell>
        <mxCell id="bPaYmccHgP1xw8vOCNis-49" value="1" style="text;html=1;align=center;verticalAlign=middle;resizable=0;points=[];autosize=1;strokeColor=none;fillColor=none;" parent="1" vertex="1">
          <mxGeometry x="220" y="320" width="30" height="30" as="geometry" />
        </mxCell>
        <mxCell id="bPaYmccHgP1xw8vOCNis-56" value="有" style="rhombus;whiteSpace=wrap;html=1;" parent="1" vertex="1">
          <mxGeometry x="510" y="260" width="100" height="60" as="geometry" />
        </mxCell>
        <mxCell id="bPaYmccHgP1xw8vOCNis-57" value="" style="endArrow=none;html=1;rounded=0;exitX=0;exitY=0;exitDx=0;exitDy=0;" parent="1" source="bPaYmccHgP1xw8vOCNis-56" edge="1">
          <mxGeometry width="50" height="50" relative="1" as="geometry">
            <mxPoint x="430" y="280" as="sourcePoint" />
            <mxPoint x="480" y="230" as="targetPoint" />
          </mxGeometry>
        </mxCell>
        <mxCell id="bPaYmccHgP1xw8vOCNis-59" value="1" style="text;html=1;align=center;verticalAlign=middle;resizable=0;points=[];autosize=1;strokeColor=none;fillColor=none;" parent="1" vertex="1">
          <mxGeometry x="480" y="250" width="30" height="30" as="geometry" />
        </mxCell>
        <mxCell id="bPaYmccHgP1xw8vOCNis-60" value="n" style="text;html=1;align=center;verticalAlign=middle;resizable=0;points=[];autosize=1;strokeColor=none;fillColor=none;" parent="1" vertex="1">
          <mxGeometry x="590" y="320" width="30" height="30" as="geometry" />
        </mxCell>
        <mxCell id="bPaYmccHgP1xw8vOCNis-61" value="有" style="rhombus;whiteSpace=wrap;html=1;" parent="1" vertex="1">
          <mxGeometry x="90" y="620" width="100" height="60" as="geometry" />
        </mxCell>
        <mxCell id="bPaYmccHgP1xw8vOCNis-62" value="" style="endArrow=none;html=1;rounded=0;" parent="1" edge="1">
          <mxGeometry width="50" height="50" relative="1" as="geometry">
            <mxPoint x="139.71" y="620" as="sourcePoint" />
            <mxPoint x="139.71" y="590" as="targetPoint" />
          </mxGeometry>
        </mxCell>
        <mxCell id="bPaYmccHgP1xw8vOCNis-63" value="" style="endArrow=none;html=1;rounded=0;" parent="1" edge="1">
          <mxGeometry width="50" height="50" relative="1" as="geometry">
            <mxPoint x="139.71" y="710" as="sourcePoint" />
            <mxPoint x="139.71" y="680" as="targetPoint" />
          </mxGeometry>
        </mxCell>
        <mxCell id="bPaYmccHgP1xw8vOCNis-64" value="n" style="text;html=1;align=center;verticalAlign=middle;resizable=0;points=[];autosize=1;strokeColor=none;fillColor=none;" parent="1" vertex="1">
          <mxGeometry x="140" y="680" width="30" height="30" as="geometry" />
        </mxCell>
        <mxCell id="bPaYmccHgP1xw8vOCNis-65" value="1" style="text;html=1;align=center;verticalAlign=middle;resizable=0;points=[];autosize=1;strokeColor=none;fillColor=none;" parent="1" vertex="1">
          <mxGeometry x="140" y="590" width="30" height="30" as="geometry" />
        </mxCell>
        <mxCell id="bPaYmccHgP1xw8vOCNis-50" value="n" style="text;html=1;align=center;verticalAlign=middle;resizable=0;points=[];autosize=1;strokeColor=none;fillColor=none;" parent="1" vertex="1">
          <mxGeometry x="330" y="250" width="30" height="30" as="geometry" />
        </mxCell>
        <mxCell id="bPaYmccHgP1xw8vOCNis-69" value="" style="endArrow=none;html=1;rounded=0;entryX=0;entryY=0.5;entryDx=0;entryDy=0;exitX=1;exitY=0;exitDx=0;exitDy=0;" parent="1" source="bPaYmccHgP1xw8vOCNis-46" edge="1">
          <mxGeometry width="50" height="50" relative="1" as="geometry">
            <mxPoint x="330" y="290" as="sourcePoint" />
            <mxPoint x="360" y="230" as="targetPoint" />
          </mxGeometry>
        </mxCell>
        <mxCell id="bPaYmccHgP1xw8vOCNis-70" value="" style="endArrow=none;html=1;rounded=0;exitX=0;exitY=0.5;exitDx=0;exitDy=0;entryX=1;entryY=1;entryDx=0;entryDy=0;" parent="1" target="bPaYmccHgP1xw8vOCNis-56" edge="1">
          <mxGeometry width="50" height="50" relative="1" as="geometry">
            <mxPoint x="640" y="350" as="sourcePoint" />
            <mxPoint x="610" y="290" as="targetPoint" />
          </mxGeometry>
        </mxCell>
        <mxCell id="bPaYmccHgP1xw8vOCNis-71" value="指导" style="rhombus;whiteSpace=wrap;html=1;" parent="1" vertex="1">
          <mxGeometry x="370" y="440" width="100" height="60" as="geometry" />
        </mxCell>
        <mxCell id="bPaYmccHgP1xw8vOCNis-72" value="" style="endArrow=none;html=1;rounded=0;" parent="1" edge="1">
          <mxGeometry width="50" height="50" relative="1" as="geometry">
            <mxPoint x="419.71000000000004" y="440" as="sourcePoint" />
            <mxPoint x="419.71000000000004" y="410" as="targetPoint" />
          </mxGeometry>
        </mxCell>
        <mxCell id="bPaYmccHgP1xw8vOCNis-73" value="" style="endArrow=none;html=1;rounded=0;" parent="1" edge="1">
          <mxGeometry width="50" height="50" relative="1" as="geometry">
            <mxPoint x="419.71000000000004" y="530" as="sourcePoint" />
            <mxPoint x="419.71000000000004" y="500" as="targetPoint" />
          </mxGeometry>
        </mxCell>
        <mxCell id="bPaYmccHgP1xw8vOCNis-74" value="n" style="text;html=1;align=center;verticalAlign=middle;resizable=0;points=[];autosize=1;strokeColor=none;fillColor=none;" parent="1" vertex="1">
          <mxGeometry x="420" y="500" width="30" height="30" as="geometry" />
        </mxCell>
        <mxCell id="bPaYmccHgP1xw8vOCNis-75" value="m" style="text;html=1;align=center;verticalAlign=middle;resizable=0;points=[];autosize=1;strokeColor=none;fillColor=none;" parent="1" vertex="1">
          <mxGeometry x="420" y="410" width="30" height="30" as="geometry" />
        </mxCell>
        <mxCell id="bPaYmccHgP1xw8vOCNis-76" value="指导" style="rhombus;whiteSpace=wrap;html=1;" parent="1" vertex="1">
          <mxGeometry x="510" y="440" width="100" height="60" as="geometry" />
        </mxCell>
        <mxCell id="bPaYmccHgP1xw8vOCNis-77" value="" style="endArrow=none;html=1;rounded=0;entryX=0;entryY=1;entryDx=0;entryDy=0;" parent="1" target="bPaYmccHgP1xw8vOCNis-76" edge="1">
          <mxGeometry width="50" height="50" relative="1" as="geometry">
            <mxPoint x="480" y="530" as="sourcePoint" />
            <mxPoint x="530" y="480" as="targetPoint" />
          </mxGeometry>
        </mxCell>
        <mxCell id="bPaYmccHgP1xw8vOCNis-78" value="n" style="text;html=1;align=center;verticalAlign=middle;resizable=0;points=[];autosize=1;strokeColor=none;fillColor=none;" parent="1" vertex="1">
          <mxGeometry x="500" y="500" width="30" height="30" as="geometry" />
        </mxCell>
        <mxCell id="bPaYmccHgP1xw8vOCNis-79" value="m" style="text;html=1;align=center;verticalAlign=middle;resizable=0;points=[];autosize=1;strokeColor=none;fillColor=none;" parent="1" vertex="1">
          <mxGeometry x="610" y="430" width="30" height="30" as="geometry" />
        </mxCell>
        <mxCell id="bPaYmccHgP1xw8vOCNis-80" value="" style="endArrow=none;html=1;rounded=0;entryX=0;entryY=0.5;entryDx=0;entryDy=0;exitX=1;exitY=0;exitDx=0;exitDy=0;" parent="1" source="bPaYmccHgP1xw8vOCNis-76" edge="1">
          <mxGeometry width="50" height="50" relative="1" as="geometry">
            <mxPoint x="610" y="470" as="sourcePoint" />
            <mxPoint x="640" y="410" as="targetPoint" />
          </mxGeometry>
        </mxCell>
        <mxCell id="bPaYmccHgP1xw8vOCNis-81" value="有" style="rhombus;whiteSpace=wrap;html=1;" parent="1" vertex="1">
          <mxGeometry x="370" y="260" width="100" height="60" as="geometry" />
        </mxCell>
        <mxCell id="bPaYmccHgP1xw8vOCNis-82" value="" style="endArrow=none;html=1;rounded=0;" parent="1" edge="1">
          <mxGeometry width="50" height="50" relative="1" as="geometry">
            <mxPoint x="419.71000000000004" y="260" as="sourcePoint" />
            <mxPoint x="419.71000000000004" y="230" as="targetPoint" />
          </mxGeometry>
        </mxCell>
        <mxCell id="bPaYmccHgP1xw8vOCNis-83" value="" style="endArrow=none;html=1;rounded=0;" parent="1" edge="1">
          <mxGeometry width="50" height="50" relative="1" as="geometry">
            <mxPoint x="419.71000000000004" y="350" as="sourcePoint" />
            <mxPoint x="419.71000000000004" y="320" as="targetPoint" />
          </mxGeometry>
        </mxCell>
        <mxCell id="bPaYmccHgP1xw8vOCNis-84" value="n" style="text;html=1;align=center;verticalAlign=middle;resizable=0;points=[];autosize=1;strokeColor=none;fillColor=none;" parent="1" vertex="1">
          <mxGeometry x="420" y="320" width="30" height="30" as="geometry" />
        </mxCell>
        <mxCell id="bPaYmccHgP1xw8vOCNis-85" value="1" style="text;html=1;align=center;verticalAlign=middle;resizable=0;points=[];autosize=1;strokeColor=none;fillColor=none;" parent="1" vertex="1">
          <mxGeometry x="420" y="230" width="30" height="30" as="geometry" />
        </mxCell>
        <mxCell id="bPaYmccHgP1xw8vOCNis-105" value="有" style="rhombus;whiteSpace=wrap;html=1;" parent="1" vertex="1">
          <mxGeometry x="510" y="170" width="100" height="60" as="geometry" />
        </mxCell>
        <mxCell id="bPaYmccHgP1xw8vOCNis-106" value="" style="endArrow=none;html=1;rounded=0;entryX=0;entryY=0.5;entryDx=0;entryDy=0;exitX=1;exitY=0.5;exitDx=0;exitDy=0;" parent="1" target="bPaYmccHgP1xw8vOCNis-105" edge="1">
          <mxGeometry width="50" height="50" relative="1" as="geometry">
            <mxPoint x="480" y="200" as="sourcePoint" />
            <mxPoint x="530" y="120" as="targetPoint" />
          </mxGeometry>
        </mxCell>
        <mxCell id="bPaYmccHgP1xw8vOCNis-107" value="" style="endArrow=none;html=1;rounded=0;entryX=0;entryY=0.5;entryDx=0;entryDy=0;exitX=1;exitY=0.5;exitDx=0;exitDy=0;" parent="1" source="bPaYmccHgP1xw8vOCNis-105" edge="1">
          <mxGeometry width="50" height="50" relative="1" as="geometry">
            <mxPoint x="630" y="110" as="sourcePoint" />
            <mxPoint x="640" y="200" as="targetPoint" />
          </mxGeometry>
        </mxCell>
        <mxCell id="bPaYmccHgP1xw8vOCNis-108" value="1" style="text;html=1;align=center;verticalAlign=middle;resizable=0;points=[];autosize=1;strokeColor=none;fillColor=none;" parent="1" vertex="1">
          <mxGeometry x="480" y="170" width="30" height="30" as="geometry" />
        </mxCell>
        <mxCell id="bPaYmccHgP1xw8vOCNis-109" value="n" style="text;html=1;align=center;verticalAlign=middle;resizable=0;points=[];autosize=1;strokeColor=none;fillColor=none;" parent="1" vertex="1">
          <mxGeometry x="610" y="170" width="30" height="30" as="geometry" />
        </mxCell>
      </root>
    </mxGraphModel>
  </diagram>
</mxfile>
